<svg width="1042" height="1244" viewBox="0 0 1042 1244" fill="none" xmlns="http://www.w3.org/2000/svg">
<g filter="url(#filter0_dddd_54_9)">
<g clip-path="url(#clip0_54_9)">
<path d="M121 22H921V822H121V22Z" fill="url(#paint0_linear_54_9)"/>
<path d="M520.379 488.412C557.326 488.412 587.278 458.461 587.278 421.514C587.278 384.566 557.326 354.615 520.379 354.615C483.432 354.615 453.48 384.566 453.48 421.514C453.48 458.461 483.432 488.412 520.379 488.412Z" fill="white"/>
<path d="M520.38 285.505C610.182 285.505 693.618 298.394 756.515 320.038C832.301 346.125 878.905 385.677 878.905 421.492C878.905 458.81 829.516 500.837 748.136 527.787C686.61 548.171 605.628 558.827 520.38 558.827C432.965 558.827 350.214 548.834 287.98 527.566C209.254 500.66 161.832 458.103 161.832 421.492C161.832 385.964 206.335 346.722 281.06 320.679C344.201 298.682 429.693 285.505 520.38 285.505Z" stroke="white" stroke-width="32.0004" stroke-miterlimit="10"/>
<path d="M401.993 353.907C446.851 276.109 499.711 210.272 549.896 166.608C610.361 113.991 667.908 93.3866 698.926 111.272C731.248 129.909 742.987 193.691 725.677 277.679C712.589 341.173 681.372 416.628 638.77 490.49C595.107 566.21 545.099 632.91 495.599 676.198C432.967 730.959 372.391 750.768 340.688 732.485C309.914 714.732 298.152 656.588 312.898 578.834C325.367 513.085 356.672 432.457 401.993 353.907Z" stroke="white" stroke-width="32.0004" stroke-miterlimit="10"/>
<path d="M402.103 490.645C357.114 412.913 326.472 334.253 313.694 268.968C298.306 190.308 309.184 130.152 340.179 112.223C372.479 93.5192 433.585 115.207 497.698 172.135C546.181 215.179 595.946 279.912 638.659 353.708C682.455 429.362 715.285 505.988 728.042 570.477C744.203 652.1 731.115 714.466 699.434 732.794C668.682 750.591 612.439 731.755 552.438 680.133C501.766 636.514 447.535 569.128 402.103 490.645Z" stroke="white" stroke-width="32.0004" stroke-miterlimit="10"/>
</g>
</g>
<defs>
<filter id="filter0_dddd_54_9" x="0" y="0" width="1042" height="1244" filterUnits="userSpaceOnUse" color-interpolation-filters="sRGB">
<feFlood flood-opacity="0" result="BackgroundImageFix"/>
<feColorMatrix in="SourceAlpha" type="matrix" values="0 0 0 0 0 0 0 0 0 0 0 0 0 0 0 0 0 0 127 0" result="hardAlpha"/>
<feOffset dy="19"/>
<feGaussianBlur stdDeviation="20.5"/>
<feColorMatrix type="matrix" values="0 0 0 0 0 0 0 0 0 0 0 0 0 0 0 0 0 0 0.1 0"/>
<feBlend mode="normal" in2="BackgroundImageFix" result="effect1_dropShadow_54_9"/>
<feColorMatrix in="SourceAlpha" type="matrix" values="0 0 0 0 0 0 0 0 0 0 0 0 0 0 0 0 0 0 127 0" result="hardAlpha"/>
<feOffset dy="75"/>
<feGaussianBlur stdDeviation="37.5"/>
<feColorMatrix type="matrix" values="0 0 0 0 0 0 0 0 0 0 0 0 0 0 0 0 0 0 0.09 0"/>
<feBlend mode="normal" in2="effect1_dropShadow_54_9" result="effect2_dropShadow_54_9"/>
<feColorMatrix in="SourceAlpha" type="matrix" values="0 0 0 0 0 0 0 0 0 0 0 0 0 0 0 0 0 0 127 0" result="hardAlpha"/>
<feOffset dy="170"/>
<feGaussianBlur stdDeviation="51"/>
<feColorMatrix type="matrix" values="0 0 0 0 0 0 0 0 0 0 0 0 0 0 0 0 0 0 0.05 0"/>
<feBlend mode="normal" in2="effect2_dropShadow_54_9" result="effect3_dropShadow_54_9"/>
<feColorMatrix in="SourceAlpha" type="matrix" values="0 0 0 0 0 0 0 0 0 0 0 0 0 0 0 0 0 0 127 0" result="hardAlpha"/>
<feOffset dy="301"/>
<feGaussianBlur stdDeviation="60.5"/>
<feColorMatrix type="matrix" values="0 0 0 0 0 0 0 0 0 0 0 0 0 0 0 0 0 0 0.01 0"/>
<feBlend mode="normal" in2="effect3_dropShadow_54_9" result="effect4_dropShadow_54_9"/>
<feBlend mode="normal" in="SourceGraphic" in2="effect4_dropShadow_54_9" result="shape"/>
</filter>
<linearGradient id="paint0_linear_54_9" x1="521" y1="22" x2="521" y2="822" gradientUnits="userSpaceOnUse">
<stop stop-color="#202020"/>
<stop offset="1" stop-color="#868686"/>
</linearGradient>
<clipPath id="clip0_54_9">
<rect x="121" y="22" width="800" height="800" rx="53" fill="white"/>
</clipPath>
</defs>
</svg>
