<svg width="570" height="664" viewBox="0 0 570 664" fill="none" xmlns="http://www.w3.org/2000/svg">
<g filter="url(#filter0_dddd_53_3)">
<g clip-path="url(#clip0_53_3)">
<path d="M513 10H57V466H513V10Z" fill="url(#paint0_linear_53_3)"/>
<path d="M138.275 301.333C135.051 301.333 132.31 300.259 130.053 298.11C127.796 295.906 126.668 293.289 126.668 290.259C126.668 287.173 127.796 284.529 130.053 282.325C132.31 280.121 135.051 279.019 138.275 279.019C141.553 279.019 144.321 280.121 146.578 282.325C148.888 284.529 150.044 287.173 150.044 290.259C150.044 293.289 148.888 295.906 146.578 298.11C144.321 300.259 141.553 301.333 138.275 301.333Z" fill="white"/>
<path d="M267.166 299.515H246.208L190.993 212.406C189.596 210.202 188.44 207.915 187.527 205.546H187.043C187.473 208.081 187.688 213.508 187.688 221.827V299.515H169.148V181H191.476L244.838 266.043C247.095 269.57 248.546 271.994 249.191 273.316H249.513C248.976 270.176 248.707 264.859 248.707 257.365V181H267.166V299.515Z" fill="white"/>
<path d="M357.451 299.515H292.562V181H354.871V197.695H311.747V231.249H351.486V247.861H311.747V282.903H357.451V299.515Z" fill="white"/>
<path d="M449.669 197.695H416.459V299.515H397.274V197.695H364.145V181H449.669V197.695Z" fill="white"/>
</g>
</g>
<defs>
<filter id="filter0_dddd_53_3" x="0" y="0" width="570" height="664" filterUnits="userSpaceOnUse" color-interpolation-filters="sRGB">
<feFlood flood-opacity="0" result="BackgroundImageFix"/>
<feColorMatrix in="SourceAlpha" type="matrix" values="0 0 0 0 0 0 0 0 0 0 0 0 0 0 0 0 0 0 127 0" result="hardAlpha"/>
<feOffset dy="9"/>
<feGaussianBlur stdDeviation="9.5"/>
<feColorMatrix type="matrix" values="0 0 0 0 0 0 0 0 0 0 0 0 0 0 0 0 0 0 0.1 0"/>
<feBlend mode="normal" in2="BackgroundImageFix" result="effect1_dropShadow_53_3"/>
<feColorMatrix in="SourceAlpha" type="matrix" values="0 0 0 0 0 0 0 0 0 0 0 0 0 0 0 0 0 0 127 0" result="hardAlpha"/>
<feOffset dy="35"/>
<feGaussianBlur stdDeviation="17.5"/>
<feColorMatrix type="matrix" values="0 0 0 0 0 0 0 0 0 0 0 0 0 0 0 0 0 0 0.09 0"/>
<feBlend mode="normal" in2="effect1_dropShadow_53_3" result="effect2_dropShadow_53_3"/>
<feColorMatrix in="SourceAlpha" type="matrix" values="0 0 0 0 0 0 0 0 0 0 0 0 0 0 0 0 0 0 127 0" result="hardAlpha"/>
<feOffset dy="80"/>
<feGaussianBlur stdDeviation="24"/>
<feColorMatrix type="matrix" values="0 0 0 0 0 0 0 0 0 0 0 0 0 0 0 0 0 0 0.05 0"/>
<feBlend mode="normal" in2="effect2_dropShadow_53_3" result="effect3_dropShadow_53_3"/>
<feColorMatrix in="SourceAlpha" type="matrix" values="0 0 0 0 0 0 0 0 0 0 0 0 0 0 0 0 0 0 127 0" result="hardAlpha"/>
<feOffset dy="141"/>
<feGaussianBlur stdDeviation="28.5"/>
<feColorMatrix type="matrix" values="0 0 0 0 0 0 0 0 0 0 0 0 0 0 0 0 0 0 0.01 0"/>
<feBlend mode="normal" in2="effect3_dropShadow_53_3" result="effect4_dropShadow_53_3"/>
<feBlend mode="normal" in="SourceGraphic" in2="effect4_dropShadow_53_3" result="shape"/>
</filter>
<linearGradient id="paint0_linear_53_3" x1="285" y1="10" x2="285" y2="466" gradientUnits="userSpaceOnUse">
<stop stop-color="#202020"/>
<stop offset="1" stop-color="#868686"/>
</linearGradient>
<clipPath id="clip0_53_3">
<rect x="57" y="10" width="456" height="456" rx="53" fill="white"/>
</clipPath>
</defs>
</svg>
