<svg width="117" height="28" viewBox="0 0 117 28" fill="none" xmlns="http://www.w3.org/2000/svg">
<path d="M0.365451 27V10.3333H5.19879V27H0.365451ZM2.78212 7.91667C2.0599 7.91667 1.44878 7.66667 0.948785 7.16667C0.448785 6.66667 0.198785 6.05555 0.198785 5.33333C0.198785 4.59259 0.448785 3.98148 0.948785 3.5C1.44878 3 2.0599 2.75 2.78212 2.75C3.52286 2.75 4.13397 3 4.61545 3.5C5.11545 3.98148 5.36545 4.59259 5.36545 5.33333C5.36545 6.05555 5.11545 6.66667 4.61545 7.16667C4.13397 7.66667 3.52286 7.91667 2.78212 7.91667ZM6.90365 27V10.3333H11.237V12.1667C11.8296 11.3889 12.5611 10.7963 13.4314 10.3889C14.3018 9.98148 15.237 9.77778 16.237 9.77778C17.4222 9.77778 18.524 10.0648 19.5425 10.6389C20.5796 11.1944 21.4129 12.0185 22.0425 13.1111C22.6907 14.1852 23.0148 15.4907 23.0148 17.0278V27H18.1814V17.6667C18.1814 16.7407 17.9036 15.9167 17.3481 15.1944C16.7925 14.4722 15.9962 14.1111 14.9592 14.1111C14.1259 14.1111 13.3759 14.3981 12.7092 14.9722C12.0611 15.5278 11.737 16.4074 11.737 17.6111V27H6.90365ZM32.5234 27.5556C30.8753 27.5556 29.366 27.1574 27.9957 26.3611C26.6253 25.5648 25.5327 24.4907 24.7179 23.1389C23.9216 21.787 23.5234 20.2963 23.5234 18.6667C23.5234 17.0185 23.9216 15.5278 24.7179 14.1944C25.5327 12.8426 26.6253 11.7685 27.9957 10.9722C29.366 10.1759 30.8753 9.77778 32.5234 9.77778C34.1901 9.77778 35.6994 10.1759 37.0512 10.9722C38.4216 11.7685 39.5049 12.8426 40.3012 14.1944C41.116 15.5278 41.5234 17.0185 41.5234 18.6667C41.5234 20.2963 41.116 21.787 40.3012 23.1389C39.5049 24.4907 38.4216 25.5648 37.0512 26.3611C35.6994 27.1574 34.1901 27.5556 32.5234 27.5556ZM32.5234 23.2222C33.3568 23.2222 34.1068 23.0185 34.7734 22.6111C35.4586 22.2037 35.9957 21.6574 36.3845 20.9722C36.792 20.2685 36.9957 19.5 36.9957 18.6667C36.9957 17.8148 36.792 17.0463 36.3845 16.3611C35.9957 15.6759 35.4586 15.1296 34.7734 14.7222C34.1068 14.3148 33.3568 14.1111 32.5234 14.1111C31.6901 14.1111 30.9308 14.3148 30.2457 14.7222C29.579 15.1296 29.042 15.6759 28.6345 16.3611C28.2457 17.0463 28.0512 17.8148 28.0512 18.6667C28.0512 19.5 28.2457 20.2685 28.6345 20.9722C29.042 21.6574 29.579 22.2037 30.2457 22.6111C30.9308 23.0185 31.6901 23.2222 32.5234 23.2222ZM49.2821 27.8333L40.1432 10.3333H45.5043L48.1155 15.6944C48.3562 16.1574 48.5784 16.6204 48.7821 17.0833C48.9858 17.5278 49.1895 18.037 49.3932 18.6111C49.5969 18.037 49.8006 17.5278 50.0043 17.0833C50.208 16.6204 50.4303 16.1574 50.671 15.6944L53.2821 10.3333H58.421L49.2821 27.8333ZM67.7648 27.4444C66.7092 27.4444 65.737 27.2593 64.8481 26.8889C63.9777 26.5185 63.2185 26.0093 62.5703 25.3611V27H58.4036V0.333333H63.237V11.3889C63.8481 10.9074 64.5333 10.537 65.2925 10.2778C66.0518 10.0185 66.8759 9.88889 67.7648 9.88889C69.3203 9.88889 70.7277 10.287 71.987 11.0833C73.2462 11.8611 74.2462 12.9167 74.987 14.25C75.7462 15.5833 76.1259 17.0556 76.1259 18.6667C76.1259 20.2778 75.7462 21.75 74.987 23.0833C74.2462 24.3981 73.2462 25.4537 71.987 26.25C70.7277 27.0463 69.3203 27.4444 67.7648 27.4444ZM67.2092 23.1944C68.024 23.1944 68.7648 22.9907 69.4314 22.5833C70.0981 22.1759 70.6259 21.6296 71.0148 20.9444C71.4222 20.2593 71.6259 19.5 71.6259 18.6667C71.6259 17.8333 71.4222 17.0741 71.0148 16.3889C70.6259 15.7037 70.0981 15.1574 69.4314 14.75C68.7648 14.3426 68.024 14.1389 67.2092 14.1389C66.3944 14.1389 65.6536 14.3426 64.987 14.75C64.3203 15.1574 63.7833 15.7037 63.3759 16.3889C62.987 17.0741 62.7925 17.8333 62.7925 18.6667C62.7925 19.5 62.987 20.2593 63.3759 20.9444C63.7833 21.6296 64.3203 22.1759 64.987 22.5833C65.6536 22.9907 66.3944 23.1944 67.2092 23.1944ZM85.5894 27.5556C83.719 27.5556 82.0709 27.1667 80.645 26.3889C79.219 25.6111 78.1079 24.5463 77.3116 23.1944C76.5153 21.8241 76.1172 20.2593 76.1172 18.5C76.1172 16.8148 76.5061 15.3241 77.2839 14.0278C78.0616 12.713 79.1079 11.6759 80.4227 10.9167C81.7561 10.1574 83.2283 9.77778 84.8394 9.77778C86.4876 9.77778 87.9598 10.1574 89.2561 10.9167C90.5524 11.6574 91.5709 12.6759 92.3116 13.9722C93.0709 15.2685 93.4505 16.7407 93.4505 18.3889V20.0833H83.2839C82.8209 20.0833 82.3764 20.0556 81.9505 20C81.5246 19.9444 81.0987 19.8796 80.6727 19.8056C80.895 20.9167 81.4413 21.8241 82.3116 22.5278C83.2005 23.213 84.3302 23.5556 85.7005 23.5556C86.7561 23.5556 87.7005 23.3426 88.5339 22.9167C89.3857 22.4907 90.0802 21.963 90.6172 21.3333L91.6727 25.6667C90.8394 26.2963 89.895 26.7685 88.8394 27.0833C87.8024 27.3981 86.719 27.5556 85.5894 27.5556ZM80.5616 16.8889C81.4876 16.6852 82.395 16.5833 83.2839 16.5833H86.2283C86.7468 16.5833 87.2376 16.6019 87.7005 16.6389C88.1635 16.6759 88.5987 16.7407 89.0061 16.8333C88.7283 15.8333 88.219 15.0463 87.4783 14.4722C86.7561 13.8981 85.8579 13.6111 84.7839 13.6111C83.7653 13.6111 82.8764 13.9074 82.1172 14.5C81.3764 15.0741 80.8579 15.8704 80.5616 16.8889ZM99.6024 27.5556C98.4728 27.5556 97.3247 27.3704 96.158 27C95.0098 26.6296 94.1117 26.1296 93.4635 25.5L94.658 20.9444C95.195 21.6852 95.9358 22.3333 96.8802 22.8889C97.8432 23.4444 98.8339 23.7222 99.8524 23.7222C100.538 23.7222 101.028 23.5926 101.325 23.3333C101.639 23.0741 101.797 22.7593 101.797 22.3889C101.797 21.963 101.639 21.6574 101.325 21.4722C101.01 21.2685 100.686 21.1019 100.352 20.9722L98.0191 20.0833C97.5006 19.8796 96.908 19.6019 96.2413 19.25C95.5747 18.8981 94.9913 18.3981 94.4913 17.75C94.0098 17.1019 93.7691 16.25 93.7691 15.1944C93.7691 14.2315 94.0098 13.3426 94.4913 12.5278C94.9728 11.713 95.6672 11.0556 96.5747 10.5556C97.5006 10.037 98.6117 9.77778 99.908 9.77778C101.112 9.77778 102.232 9.98148 103.269 10.3889C104.325 10.7963 105.093 11.25 105.575 11.75L104.464 16.1389C103.834 15.3241 103.084 14.7037 102.214 14.2778C101.362 13.8333 100.547 13.6111 99.7691 13.6111C99.1765 13.6111 98.7413 13.7315 98.4635 13.9722C98.1858 14.213 98.0469 14.4907 98.0469 14.8056C98.0469 15.0463 98.1395 15.287 98.3247 15.5278C98.5284 15.75 98.8617 15.9537 99.3247 16.1389L101.491 16.9444C102.121 17.1667 102.788 17.463 103.491 17.8333C104.214 18.2037 104.825 18.7222 105.325 19.3889C105.825 20.037 106.075 20.9352 106.075 22.0833C106.075 23.6944 105.473 25.0093 104.269 26.0278C103.084 27.0463 101.528 27.5556 99.6024 27.5556ZM108.801 27V14.1667H105.69V10.3333H108.885V4.77778H113.551V10.3333H116.857V14.1667H113.635V27H108.801Z" fill="url(#paint0_linear_53_2)"/>
<defs>
<linearGradient id="paint0_linear_53_2" x1="-2" y1="16.717" x2="117.985" y2="15.0609" gradientUnits="userSpaceOnUse">
<stop stop-color="white"/>
<stop offset="1" stop-color="#B6B6B6"/>
</linearGradient>
</defs>
</svg>
