<svg width="116" height="28" viewBox="0 0 116 28" fill="none" xmlns="http://www.w3.org/2000/svg">
<path d="M0.165451 27V10.3333H4.99878V27H0.165451ZM2.58212 7.91667C1.8599 7.91667 1.24878 7.66667 0.748784 7.16667C0.248784 6.66667 -0.00121599 6.05555 -0.00121599 5.33333C-0.00121599 4.59259 0.248784 3.98148 0.748784 3.5C1.24878 3 1.8599 2.75 2.58212 2.75C3.32286 2.75 3.93397 3 4.41545 3.5C4.91545 3.98148 5.16545 4.59259 5.16545 5.33333C5.16545 6.05555 4.91545 6.66667 4.41545 7.16667C3.93397 7.66667 3.32286 7.91667 2.58212 7.91667ZM6.70365 27V10.3333H11.037V12.1667C11.6296 11.3889 12.3611 10.7963 13.2314 10.3889C14.1018 9.98148 15.037 9.77778 16.037 9.77778C17.2222 9.77778 18.324 10.0648 19.3425 10.6389C20.3796 11.1944 21.2129 12.0185 21.8425 13.1111C22.4907 14.1852 22.8148 15.4907 22.8148 17.0278V27H17.9814V17.6667C17.9814 16.7407 17.7036 15.9167 17.1481 15.1944C16.5925 14.4722 15.7962 14.1111 14.7592 14.1111C13.9259 14.1111 13.1759 14.3981 12.5092 14.9722C11.8611 15.5278 11.537 16.4074 11.537 17.6111V27H6.70365ZM32.3234 27.5556C30.6753 27.5556 29.166 27.1574 27.7957 26.3611C26.4253 25.5648 25.3327 24.4907 24.5179 23.1389C23.7216 21.787 23.3234 20.2963 23.3234 18.6667C23.3234 17.0185 23.7216 15.5278 24.5179 14.1944C25.3327 12.8426 26.4253 11.7685 27.7957 10.9722C29.166 10.1759 30.6753 9.77778 32.3234 9.77778C33.9901 9.77778 35.4994 10.1759 36.8512 10.9722C38.2216 11.7685 39.3049 12.8426 40.1012 14.1944C40.916 15.5278 41.3234 17.0185 41.3234 18.6667C41.3234 20.2963 40.916 21.787 40.1012 23.1389C39.3049 24.4907 38.2216 25.5648 36.8512 26.3611C35.4994 27.1574 33.9901 27.5556 32.3234 27.5556ZM32.3234 23.2222C33.1568 23.2222 33.9068 23.0185 34.5734 22.6111C35.2586 22.2037 35.7957 21.6574 36.1845 20.9722C36.592 20.2685 36.7957 19.5 36.7957 18.6667C36.7957 17.8148 36.592 17.0463 36.1845 16.3611C35.7957 15.6759 35.2586 15.1296 34.5734 14.7222C33.9068 14.3148 33.1568 14.1111 32.3234 14.1111C31.4901 14.1111 30.7308 14.3148 30.0457 14.7222C29.379 15.1296 28.842 15.6759 28.4345 16.3611C28.0457 17.0463 27.8512 17.8148 27.8512 18.6667C27.8512 19.5 28.0457 20.2685 28.4345 20.9722C28.842 21.6574 29.379 22.2037 30.0457 22.6111C30.7308 23.0185 31.4901 23.2222 32.3234 23.2222ZM49.0821 27.8333L39.9432 10.3333H45.3043L47.9155 15.6944C48.1562 16.1574 48.3784 16.6204 48.5821 17.0833C48.7858 17.5278 48.9895 18.037 49.1932 18.6111C49.3969 18.037 49.6006 17.5278 49.8043 17.0833C50.008 16.6204 50.2303 16.1574 50.471 15.6944L53.0821 10.3333H58.221L49.0821 27.8333ZM66.7648 27.4444C65.7092 27.4444 64.737 27.2593 63.8481 26.8889C62.9777 26.5185 62.2185 26.0093 61.5703 25.3611V27H57.4036V0.333333H62.237V11.3889C62.8481 10.9074 63.5333 10.537 64.2925 10.2778C65.0518 10.0185 65.8759 9.88889 66.7648 9.88889C68.3203 9.88889 69.7277 10.287 70.987 11.0833C72.2462 11.8611 73.2462 12.9167 73.987 14.25C74.7462 15.5833 75.1259 17.0556 75.1259 18.6667C75.1259 20.2778 74.7462 21.75 73.987 23.0833C73.2462 24.3981 72.2462 25.4537 70.987 26.25C69.7277 27.0463 68.3203 27.4444 66.7648 27.4444ZM66.2092 23.1944C67.024 23.1944 67.7648 22.9907 68.4314 22.5833C69.0981 22.1759 69.6259 21.6296 70.0148 20.9444C70.4222 20.2593 70.6259 19.5 70.6259 18.6667C70.6259 17.8333 70.4222 17.0741 70.0148 16.3889C69.6259 15.7037 69.0981 15.1574 68.4314 14.75C67.7648 14.3426 67.024 14.1389 66.2092 14.1389C65.3944 14.1389 64.6536 14.3426 63.987 14.75C63.3203 15.1574 62.7833 15.7037 62.3759 16.3889C61.987 17.0741 61.7925 17.8333 61.7925 18.6667C61.7925 19.5 61.987 20.2593 62.3759 20.9444C62.7833 21.6296 63.3203 22.1759 63.987 22.5833C64.6536 22.9907 65.3944 23.1944 66.2092 23.1944ZM83.7894 27.5556C81.919 27.5556 80.2709 27.1667 78.845 26.3889C77.419 25.6111 76.3079 24.5463 75.5116 23.1944C74.7153 21.8241 74.3172 20.2593 74.3172 18.5C74.3172 16.8148 74.7061 15.3241 75.4839 14.0278C76.2616 12.713 77.3079 11.6759 78.6227 10.9167C79.9561 10.1574 81.4283 9.77778 83.0394 9.77778C84.6876 9.77778 86.1598 10.1574 87.4561 10.9167C88.7524 11.6574 89.7709 12.6759 90.5116 13.9722C91.2709 15.2685 91.6505 16.7407 91.6505 18.3889V20.0833H81.4839C81.0209 20.0833 80.5764 20.0556 80.1505 20C79.7246 19.9444 79.2987 19.8796 78.8727 19.8056C79.095 20.9167 79.6413 21.8241 80.5116 22.5278C81.4005 23.213 82.5301 23.5556 83.9005 23.5556C84.9561 23.5556 85.9005 23.3426 86.7339 22.9167C87.5857 22.4907 88.2801 21.963 88.8172 21.3333L89.8727 25.6667C89.0394 26.2963 88.095 26.7685 87.0394 27.0833C86.0024 27.3981 84.919 27.5556 83.7894 27.5556ZM78.7616 16.8889C79.6876 16.6852 80.595 16.5833 81.4839 16.5833H84.4283C84.9468 16.5833 85.4376 16.6019 85.9005 16.6389C86.3635 16.6759 86.7987 16.7407 87.2061 16.8333C86.9283 15.8333 86.419 15.0463 85.6783 14.4722C84.9561 13.8981 84.0579 13.6111 82.9839 13.6111C81.9653 13.6111 81.0764 13.9074 80.3172 14.5C79.5764 15.0741 79.0579 15.8704 78.7616 16.8889ZM97.8024 27.5556C96.6728 27.5556 95.5246 27.3704 94.358 27C93.2098 26.6296 92.3117 26.1296 91.6635 25.5L92.858 20.9444C93.395 21.6852 94.1358 22.3333 95.0802 22.8889C96.0432 23.4444 97.0339 23.7222 98.0524 23.7222C98.7376 23.7222 99.2284 23.5926 99.5246 23.3333C99.8395 23.0741 99.9969 22.7593 99.9969 22.3889C99.9969 21.963 99.8395 21.6574 99.5246 21.4722C99.2098 21.2685 98.8858 21.1019 98.5524 20.9722L96.2191 20.0833C95.7006 19.8796 95.108 19.6019 94.4413 19.25C93.7746 18.8981 93.1913 18.3981 92.6913 17.75C92.2098 17.1019 91.9691 16.25 91.9691 15.1944C91.9691 14.2315 92.2098 13.3426 92.6913 12.5278C93.1728 11.713 93.8672 11.0556 94.7746 10.5556C95.7006 10.037 96.8117 9.77778 98.108 9.77778C99.3117 9.77778 100.432 9.98148 101.469 10.3889C102.525 10.7963 103.293 11.25 103.775 11.75L102.664 16.1389C102.034 15.3241 101.284 14.7037 100.414 14.2778C99.5617 13.8333 98.7469 13.6111 97.9691 13.6111C97.3765 13.6111 96.9413 13.7315 96.6635 13.9722C96.3858 14.213 96.2469 14.4907 96.2469 14.8056C96.2469 15.0463 96.3395 15.287 96.5246 15.5278C96.7284 15.75 97.0617 15.9537 97.5246 16.1389L99.6913 16.9444C100.321 17.1667 100.988 17.463 101.691 17.8333C102.414 18.2037 103.025 18.7222 103.525 19.3889C104.025 20.037 104.275 20.9352 104.275 22.0833C104.275 23.6944 103.673 25.0093 102.469 26.0278C101.284 27.0463 99.7284 27.5556 97.8024 27.5556ZM107.001 27V14.1667H103.89V10.3333H107.085V4.77778H111.751V10.3333H115.057V14.1667H111.835V27H107.001Z" fill="url(#paint0_linear_41_2)"/>
<defs>
<linearGradient id="paint0_linear_41_2" x1="-2" y1="13.5" x2="116" y2="13.5" gradientUnits="userSpaceOnUse">
<stop stop-color="#FCFCFC"/>
<stop offset="1" stop-color="#87888B"/>
</linearGradient>
</defs>
</svg>
